<svg width="3412" height="319" viewBox="0 0 3412 319" fill="none" xmlns="http://www.w3.org/2000/svg">
<path d="M3274.91 21.3C3300.23 21.3 3321.07 25.7363 3337.29 34.7941L3338.06 35.2101C3354.11 43.9954 3362.61 55.9125 3362.61 71.0002C3362.61 85.5156 3357.55 96.963 3347.25 104.974C3337.31 112.702 3325.35 118.043 3311.44 121.044L3311.44 121.043C3297.97 124.005 3280.41 126.548 3258.77 128.686C3242.26 130.549 3229.53 132.276 3220.55 133.862C3211.7 135.422 3204.42 138.002 3198.61 141.535C3193.15 144.857 3190.61 149.284 3190.61 155V155.3H3361.71C3362.91 155.3 3364.17 155.436 3365.23 155.964C3365.79 156.246 3366.37 156.673 3366.79 157.313C3367.23 157.968 3367.41 158.695 3367.41 159.4C3367.41 160.866 3366.75 162.197 3365.44 163.02C3364.32 163.719 3362.96 163.9 3361.71 163.9H3182.01V155.4C3182.01 146.813 3185.78 140.044 3193.11 135.332C3200.12 130.56 3208.61 127.383 3218.49 125.736C3228.45 123.853 3242.11 121.981 3259.44 120.114L3259.46 120.113C3280.22 117.984 3296.92 115.594 3309.6 112.952C3322.08 110.353 3332.65 105.695 3341.37 99.0275C3349.75 92.3677 3354.01 83.0066 3354.01 70.5998C3354.01 62.877 3350.79 56.062 3344.05 50.0685L3344.01 50.0363L3343.98 50.0021C3337.43 43.7069 3328.11 38.8026 3315.85 35.4094L3315.82 35.4006L3315.78 35.3918C3303.8 31.7434 3290.18 29.8996 3274.91 29.8996C3256.15 29.8996 3238.58 34.585 3222.15 43.9709C3205.83 53.3007 3192.54 67.5875 3182.32 86.966L3182.32 86.9777C3172.16 105.988 3167.01 129.69 3167.01 158.2C3167.01 183.495 3171.49 206.896 3180.42 228.433L3180.84 229.422C3189.73 250.135 3203.15 266.892 3221.13 279.742L3222 280.334C3240.28 292.663 3262.94 298.9 3290.11 298.9C3314.76 298.9 3336.44 291.459 3355.25 276.57L3356.14 275.856C3375.45 260.196 3390.42 238.073 3400.97 209.339L3401.07 209.06L3401.23 208.814C3401.87 207.863 3403.05 206.5 3404.91 206.5L3405.18 206.509C3405.8 206.55 3406.43 206.738 3407 207.12C3407.56 207.493 3407.96 207.978 3408.24 208.471L3408.35 208.682L3408.47 208.94C3409.01 210.237 3408.82 211.669 3408.54 212.807L3408.5 212.945L3408.45 213.078C3395.92 246.493 3377.96 271.744 3354.47 288.63C3330.97 305.523 3302.14 313.9 3268.11 313.9C3240.29 313.9 3215.34 308.089 3193.34 296.408C3171.33 284.724 3154.05 268.129 3141.55 246.658C3129.03 225.16 3122.81 200.314 3122.81 172.2C3122.81 145.104 3129.46 120.134 3142.75 97.34C3156.03 74.3044 3174.21 55.9982 3197.24 42.4494L3198.33 41.8058C3221.38 28.3949 3246.92 21.5664 3274.89 21.3H3274.91Z" fill="black" stroke="black" stroke-width="5"/>
<path d="M3105.89 136.2C3105.89 137.156 3105.65 138.184 3104.95 139.062C3104.25 139.931 3103.31 140.397 3102.4 140.625L3102.1 140.7H3101.79C3100.84 140.7 3099.81 140.454 3098.93 139.752C3098.06 139.056 3097.6 138.117 3097.37 137.206L3097.35 137.14L3097.34 137.071L3087.74 87.1035C3086.03 78.7808 3080.47 70.4354 3070.58 62.1123C3060.65 53.7506 3049.41 46.948 3036.83 41.708L3036.81 41.6992L3036.79 41.6904C3024.09 36.1351 3014.21 33.5001 3006.99 33.5H2983.54C2964.62 50.2179 2950.26 68.1676 2940.42 87.3418L2940.41 87.3545C2930.38 106.616 2923.67 125.974 2920.26 145.433C2917.08 164.737 2915.49 185.924 2915.49 209C2915.49 237.931 2922.59 260.498 2936.5 276.988C2950.34 293.381 2970.11 301.7 2996.19 301.7C3023.46 301.7 3045.66 294.37 3062.99 279.882L3063 279.876L3063 279.87C3080.66 265.329 3095.11 242.596 3106.22 211.41C3106.46 210.558 3106.92 209.697 3107.73 209.048C3108.61 208.346 3109.64 208.1 3110.59 208.1C3111.3 208.1 3112.03 208.283 3112.68 208.72C3113.24 209.093 3113.64 209.578 3113.92 210.07L3114.03 210.282L3114.15 210.539C3114.69 211.836 3114.5 213.268 3114.22 214.406L3114.19 214.513L3114.16 214.617C3102.85 247.322 3086.93 272.074 3066.26 288.65C3045.56 305.251 3020.29 313.5 2990.59 313.5C2970.79 313.5 2952.42 309.563 2935.53 301.664L2935.51 301.654L2935.49 301.644C2918.82 293.445 2905.41 281.539 2895.3 265.961L2895.29 265.953L2895.29 265.944C2885.12 250.014 2880.09 231.131 2880.09 209.4C2880.09 178.52 2888.76 146.656 2905.98 113.839L2905.98 113.832C2922.38 82.798 2944.11 56.0165 2971.15 33.5H2932.19C2924.98 33.5 2915.09 36.1351 2902.4 41.6904L2902.36 41.708C2889.78 46.9479 2878.53 53.7507 2868.6 62.1123C2858.72 70.4357 2853.16 78.7815 2851.44 87.1045L2841.85 137.071L2841.84 137.14L2841.82 137.206C2841.55 138.271 2840.91 139.337 2839.71 139.937C2838.61 140.485 2837.45 140.439 2836.5 140.251L2836.45 140.24L2836.39 140.226C2835.48 139.999 2834.41 139.488 2833.75 138.386C2833.12 137.333 2833.14 136.207 2833.34 135.317L2857.34 13.3174L2857.35 13.2549L2857.37 13.1934C2857.48 12.7339 2857.7 12.1055 2858.19 11.5537C2858.74 10.9166 2859.56 10.5 2860.49 10.5C2861.31 10.5001 2861.96 10.8135 2862.38 11.0713C2862.71 11.275 2863.02 11.5193 2863.29 11.7744L2863.56 12.0322L2863.61 12.084L2863.66 12.1387C2867.53 16.4937 2873.06 19.7468 2880.44 21.7842L2881.17 21.9746C2888.79 23.9048 2898.84 24.9004 2911.39 24.9004H3027.79C3040.76 24.9004 3050.9 23.8381 3058.33 21.79L3058.34 21.7871L3058.35 21.7842C3066.01 19.7409 3071.67 16.4802 3075.53 12.1387L3075.57 12.084L3075.63 12.0322C3075.97 11.6871 3076.37 11.343 3076.81 11.0713C3077.23 10.8135 3077.88 10.5 3078.69 10.5C3079.63 10.5001 3080.44 10.9168 3081 11.5537C3081.42 12.0365 3081.64 12.5781 3081.77 13.0137L3081.82 13.1934L3081.83 13.2549L3081.85 13.3174L3105.85 135.317L3105.89 135.557V136.2Z" fill="black" stroke="black" stroke-width="5"/>
<path d="M2720.79 21.3C2734.65 21.3 2746.33 25.4721 2755.64 33.925C2765.35 42.4904 2770.09 54.4325 2770.09 69.3996C2770.09 81.625 2766.61 92.6552 2759.65 102.413L2759.65 102.414C2753.56 111.292 2744.96 120.085 2733.91 128.812L2743.33 134.891C2758.84 144.516 2771.45 153.237 2781.16 161.053C2791.24 168.965 2799.7 178.511 2806.51 189.675C2813.45 200.779 2816.89 213.514 2816.89 227.8C2816.89 244.855 2811.92 259.929 2801.97 272.92C2792.06 285.862 2778.34 295.844 2760.93 302.916C2743.52 309.99 2723.86 313.5 2701.99 313.5C2680.83 313.5 2662 309.02 2645.58 299.99L2645.56 299.975C2629.16 290.681 2616.42 277.813 2607.4 261.404L2607.37 261.362C2598.62 244.678 2594.29 225.333 2594.29 203.4C2594.29 199.844 2594.56 194.587 2595.09 187.671C2595.11 186.761 2595.3 185.66 2596.04 184.738C2596.89 183.667 2598.1 183.3 2599.19 183.3L2599.59 183.314C2600.55 183.378 2601.61 183.686 2602.46 184.532C2603.42 185.5 2603.69 186.748 2603.69 187.8V187.889L2603.68 187.978C2603.15 195.442 2602.89 200.698 2602.89 203.8C2602.89 223.187 2606.81 240.525 2614.62 255.867C2622.4 271.176 2633.67 283.223 2648.46 292.048C2663.48 300.583 2681.29 304.9 2701.99 304.9C2726.75 304.9 2747.38 300.289 2763.99 291.206L2763.99 291.202L2764 291.198C2772.32 286.72 2778.45 280.959 2782.52 273.945C2786.6 266.926 2788.69 258.509 2788.69 248.6C2788.69 238.094 2786.13 228.681 2781.05 220.296C2775.85 211.725 2769.36 204.057 2761.55 197.289L2761.52 197.262C2753.88 190.41 2743.29 182.067 2729.72 172.224L2729.71 172.214L2729.69 172.204C2716.45 162.332 2707.27 155.232 2702.21 150.945C2688.04 160.598 2676.62 168.867 2667.94 175.758C2659.35 182.79 2651.93 190.992 2645.68 200.372C2639.83 209.542 2636.89 219.861 2636.89 231.4C2636.89 232.484 2636.61 233.638 2635.81 234.601C2635.01 235.558 2633.93 236.04 2632.88 236.251L2632.64 236.3H2632.39C2631.13 236.3 2629.89 235.768 2629.11 234.587C2628.44 233.585 2628.29 232.398 2628.29 231.4C2628.29 218.438 2631.47 206.775 2637.86 196.481L2637.87 196.473L2637.87 196.465C2644.41 186.111 2652.32 177.109 2661.6 169.47L2661.61 169.459L2661.63 169.447C2670.46 162.377 2681.76 154.266 2695.49 145.116C2684.49 135.216 2675.79 124.8 2669.43 113.857C2662.51 101.969 2659.09 88.4598 2659.09 73.3996C2659.09 63.2463 2662.2 54.1673 2668.42 46.2551C2674.55 38.1932 2682.35 32.0739 2691.78 27.9123C2701.4 23.5208 2711.07 21.3 2720.79 21.3ZM2720.79 29.8996C2706.98 29.8996 2697.7 33.1614 2692.25 39.0724C2686.92 45.1336 2684.09 53.9227 2684.09 65.8C2684.09 77.4919 2687.76 87.7257 2695.11 96.6047C2702.38 105.379 2712.88 114.49 2726.7 123.92C2737.86 115.325 2746.39 106.8 2752.35 98.3586C2758.44 89.7178 2761.49 80.0884 2761.49 69.3996C2761.49 55.5226 2757.27 45.8496 2749.28 39.7932L2749.24 39.7668L2749.21 39.7404C2741.14 33.1856 2731.71 29.8996 2720.79 29.8996Z" fill="black" stroke="black" stroke-width="5"/>
<path d="M2436.09 14.3639C2436.93 13.9432 2438.73 13.3919 2440.17 14.8326L2440.52 15.1764L2440.7 15.6246L2538.31 246.025C2544.95 261.713 2550.5 273.466 2554.96 281.34C2559.65 289.146 2564.49 294.691 2569.44 298.152C2574.26 301.53 2580.4 303.3 2588 303.3C2588.92 303.3 2590.07 303.531 2590.97 304.432C2591.87 305.333 2592.1 306.481 2592.1 307.4C2592.1 308.41 2591.73 309.531 2590.7 310.3C2589.81 310.968 2588.78 311.1 2588 311.1C2579.16 311.1 2571.22 310.832 2564.21 310.293L2564.13 310.287L2564.05 310.275C2562.36 310.034 2559.71 309.9 2556 309.9H2524.8C2518.69 309.9 2513.97 310.033 2510.6 310.293L2510.56 310.296L2510.52 310.297C2499.27 310.833 2485.49 311.1 2469.2 311.1C2468.17 311.1 2467.06 311.001 2466.12 310.598C2465.62 310.385 2465.05 310.037 2464.6 309.46C2464.13 308.847 2463.9 308.125 2463.9 307.4C2463.9 305.961 2464.62 304.737 2465.86 304.03C2466.87 303.452 2468.07 303.305 2469.15 303.3L2471.34 303.237C2482.11 302.85 2490.08 301.425 2495.41 299.107C2500.45 296.912 2503.5 293.634 2504.85 289.245C2486.02 267.728 2465.03 249.688 2441.87 235.116L2441.86 235.111L2441.85 235.105C2423.24 223.185 2404.4 213.59 2385.33 206.308C2391.35 211.649 2396.79 217.8 2401.65 224.756C2410.26 236.455 2414.5 250.856 2414.5 267.8C2414.5 279.65 2410.25 290.228 2401.88 299.45C2393.59 308.879 2382.19 313.5 2368 313.5C2349.94 313.5 2335.96 308.423 2326.54 297.864L2326.52 297.85L2326.51 297.836C2317.52 287.441 2313.1 274.296 2313.1 258.6C2313.1 242.392 2317.5 226.635 2326.23 211.36L2326.24 211.338L2415.61 58.4264L2406.58 37.3619C2406.21 36.7495 2405.79 35.7544 2406.08 34.5943C2406.4 33.3035 2407.37 32.6521 2408.11 32.3414L2408.41 32.2281C2423.25 27.1908 2431.75 21.447 2435 15.4146L2435.38 14.7184L2436.09 14.3639ZM2333.36 216.258L2333.36 216.266L2333.35 216.273C2325.85 228.947 2322.1 242.773 2322.1 257.8C2322.1 271.711 2325.95 282.969 2333.5 291.773C2340.88 300.387 2352.22 304.9 2368 304.9C2379.96 304.9 2389.1 301.112 2395.74 293.727C2402.58 285.87 2405.9 277.383 2405.9 268.2C2405.9 254.238 2402.42 242.059 2395.52 231.575C2388.46 220.857 2380.68 212.722 2372.22 207.08L2372.18 207.055L2372.14 207.03C2363.86 201.073 2357.73 197.592 2353.63 196.3H2352.96L2352.71 196.252C2351.77 196.062 2350.74 195.673 2349.94 194.868C2349.07 194.003 2348.7 192.902 2348.7 191.8V191.552L2348.75 191.31C2348.94 190.388 2349.35 189.245 2350.34 188.448C2351.44 187.569 2352.73 187.513 2353.77 187.766H2353.77C2380.19 193.966 2407.88 205.538 2436.84 222.427L2439.57 223.998C2465.22 238.913 2487.13 256.272 2505.25 276.082C2504.02 268.519 2501.02 259.179 2496.11 248.004L2496.11 247.991L2496.1 247.978L2419.65 68.1656L2333.36 216.258Z" fill="black" stroke="black" stroke-width="5"/>
<path d="M2321.13 136.2C2321.13 137.156 2320.88 138.184 2320.18 139.062C2319.48 139.931 2318.54 140.397 2317.63 140.625L2317.34 140.7H2317.03C2316.07 140.7 2315.04 140.454 2314.17 139.752C2313.3 139.056 2312.83 138.117 2312.6 137.206L2312.59 137.14L2312.57 137.071L2302.98 87.1035C2301.27 78.7808 2295.7 70.4354 2285.82 62.1123C2275.89 53.7506 2264.64 46.948 2252.07 41.708L2252.05 41.6992L2252.03 41.6904C2239.33 36.1351 2229.44 33.5001 2222.23 33.5H2198.78C2179.85 50.2179 2165.5 68.1676 2155.65 87.3418L2155.65 87.3545C2145.62 106.616 2138.91 125.974 2135.49 145.433C2132.32 164.737 2130.73 185.924 2130.73 209C2130.73 237.931 2137.83 260.498 2151.74 276.988C2165.57 293.381 2185.34 301.7 2211.43 301.7C2238.69 301.7 2260.89 294.37 2278.22 279.882L2278.23 279.876L2278.24 279.87C2295.9 265.329 2310.35 242.596 2321.45 211.41C2321.7 210.558 2322.16 209.697 2322.97 209.048C2323.84 208.346 2324.87 208.1 2325.83 208.1C2326.53 208.1 2327.26 208.283 2327.91 208.72C2328.47 209.093 2328.87 209.578 2329.15 210.07L2329.26 210.282L2329.38 210.539C2329.92 211.836 2329.74 213.268 2329.45 214.406L2329.43 214.513L2329.39 214.617C2318.09 247.322 2302.16 272.074 2281.49 288.65C2260.79 305.251 2235.52 313.5 2205.83 313.5C2186.02 313.5 2167.66 309.563 2150.77 301.664L2150.75 301.654L2150.72 301.644C2134.05 293.445 2120.64 281.539 2110.53 265.961L2110.53 265.953L2110.52 265.944C2100.36 250.014 2095.33 231.131 2095.33 209.4C2095.33 178.52 2104 146.656 2121.21 113.839L2121.22 113.832C2137.62 82.798 2159.34 56.0165 2186.38 33.5H2147.43C2140.22 33.5 2130.33 36.1351 2117.63 41.6904L2117.59 41.708C2105.01 46.9479 2093.77 53.7507 2083.84 62.1123C2073.95 70.4357 2068.39 78.7815 2066.68 87.1045L2057.08 137.071L2057.07 137.14L2057.05 137.206C2056.79 138.271 2056.15 139.337 2054.95 139.937C2053.85 140.485 2052.68 140.439 2051.74 140.251L2051.68 140.24L2051.62 140.226C2050.71 139.999 2049.65 139.488 2048.98 138.386C2048.35 137.333 2048.38 136.207 2048.58 135.317L2072.57 13.3174L2072.59 13.2549L2072.6 13.1934C2072.72 12.7339 2072.94 12.1055 2073.42 11.5537C2073.98 10.9166 2074.79 10.5 2075.73 10.5C2076.54 10.5001 2077.19 10.8135 2077.61 11.0713C2077.94 11.275 2078.25 11.5193 2078.53 11.7744L2078.8 12.0322L2078.85 12.084L2078.9 12.1387C2082.77 16.4937 2088.3 19.7468 2095.67 21.7842L2096.4 21.9746C2104.02 23.9048 2114.07 24.9004 2126.63 24.9004H2243.03C2255.99 24.9004 2266.14 23.8381 2273.56 21.79L2273.57 21.7871L2273.58 21.7842C2281.25 19.7409 2286.9 16.4802 2290.76 12.1387L2290.81 12.084L2290.86 12.0322C2291.21 11.6871 2291.6 11.343 2292.04 11.0713C2292.46 10.8135 2293.12 10.5 2293.93 10.5C2294.87 10.5001 2295.68 10.9168 2296.23 11.5537C2296.66 12.0365 2296.88 12.5781 2297 13.0137L2297.05 13.1934L2297.07 13.2549L2297.08 13.3174L2321.08 135.317L2321.13 135.557V136.2Z" fill="black" stroke="black" stroke-width="5"/>
<g transform="translate(1732, 159) skewX(-12) translate(-1732, -159)">
<path d="M1875.27 2.5C1892.71 2.5 1908.22 6.31919 1921.71 14.0293H1921.71C1935.1 21.4161 1943.48 30.5589 1946.1 41.624L1946.4 42.8984L1945.53 43.8721C1936.07 54.3816 1927.24 66.8939 1919.05 81.4277L1919.04 81.4365L1919.04 81.4443C1910.86 95.6932 1904.67 109.915 1900.47 124.11L1900.45 124.15L1900.44 124.19C1900.08 125.257 1899.44 126.466 1898.21 127.171C1896.87 127.934 1895.46 127.769 1894.34 127.321L1894.24 127.282L1894.15 127.236C1893.27 126.797 1892.31 126.041 1891.9 124.791C1891.51 123.632 1891.75 122.534 1892.14 121.681C1898 104.658 1905.18 88.5499 1913.68 73.3574C1914.4 69.1015 1914.77 64.8493 1914.77 60.5996C1914.77 46.9116 1911.29 35.3022 1904.43 25.6484L1904.41 25.623C1897.72 15.9552 1888.12 11.0996 1875.27 11.0996C1857.19 11.0997 1845.41 17.1178 1839.06 28.6104C1832.41 40.6247 1828.97 57.48 1828.97 79.4004V102.9H1873.67C1874.67 102.9 1875.85 103.052 1876.86 103.72C1878.04 104.507 1878.57 105.738 1878.57 107C1878.57 108.324 1878.06 109.651 1876.82 110.534C1875.74 111.307 1874.42 111.5 1873.27 111.5H1828.97V263.4C1828.97 275.347 1829.64 283.892 1830.89 289.193L1831.01 289.622C1832.22 294.007 1834.89 297.293 1839.2 299.57C1843.99 301.958 1852.15 303.3 1864.07 303.3C1865 303.3 1866.17 303.476 1867.13 304.248C1868.2 305.105 1868.57 306.315 1868.57 307.4C1868.57 308.647 1867.97 309.776 1866.85 310.443C1865.95 310.989 1864.9 311.1 1864.07 311.1C1852.83 311.1 1843.17 310.833 1835.1 310.295L1835.06 310.292L1835.02 310.288C1832.48 310.034 1828.84 309.9 1824.07 309.9H1797.27C1793.3 309.9 1790.36 310.033 1788.38 310.28L1788.32 310.288L1788.26 310.293C1781.25 310.832 1773.18 311.1 1764.07 311.1C1763.29 311.1 1762.26 310.967 1761.37 310.3C1760.34 309.531 1759.97 308.41 1759.97 307.4C1759.97 306.482 1760.2 305.333 1761.1 304.433C1762 303.532 1763.15 303.3 1764.07 303.3C1773.84 303.3 1780.3 301.955 1783.94 299.68L1783.97 299.662L1784 299.646C1787.9 297.354 1790.28 293.972 1791.22 289.31C1792.23 283.953 1792.77 275.359 1792.77 263.4V111.5H1766.87C1765.94 111.5 1764.77 111.324 1763.81 110.552C1762.74 109.695 1762.37 108.485 1762.37 107.4V107.152L1762.42 106.91C1762.63 105.856 1763.11 104.777 1764.07 103.979C1765.03 103.177 1766.18 102.9 1767.27 102.9H1792.78C1793.07 79.2452 1797.37 59.8763 1805.9 44.96L1805.91 44.9473C1814.87 29.4553 1825.59 18.3833 1838.13 11.9736L1838.15 11.9639C1850.71 5.68625 1863.09 2.50004 1875.27 2.5Z" fill="black" stroke="black" stroke-width="5"/>
<path d="M1638.64 96.9C1657.76 96.9 1675.04 101.824 1690.4 111.697H1690.39C1705.69 121.265 1717.71 134.251 1726.44 150.608C1735.18 166.712 1739.54 184.056 1739.54 202.6C1739.54 224.087 1734.37 243.6 1723.99 261.077L1723.99 261.076C1713.88 278.283 1699.68 291.796 1681.43 301.602L1681.42 301.609C1663.4 311.161 1642.72 315.9 1619.44 315.9C1601.41 315.9 1584.45 311.385 1568.61 302.373L1568.56 302.347C1553.01 293.072 1540.46 280.649 1530.91 265.108L1530.9 265.087L1530.89 265.064C1521.6 249.216 1516.94 232.113 1516.94 213.8C1516.94 192.028 1522.39 172.237 1533.31 154.49C1544.21 136.517 1558.93 122.479 1577.45 112.404C1596.23 102.065 1616.64 96.9 1638.64 96.9ZM1608.24 114.3C1596.72 114.3 1586.55 117.365 1577.66 123.462C1568.71 129.599 1561.65 137.921 1556.49 148.496C1551.34 159.056 1548.74 170.81 1548.74 183.8C1548.74 201.745 1553.42 219.885 1562.86 238.244H1562.86C1572.3 256.34 1584.74 271.391 1600.18 283.428H1600.18C1615.54 295.135 1631.54 300.9 1648.24 300.9C1659.78 300.9 1670.1 297.961 1679.27 292.11C1688.48 285.968 1695.51 277.79 1700.39 267.527L1700.4 267.504C1705.55 256.93 1708.14 245.44 1708.14 233C1708.14 214.752 1703.72 196.457 1694.8 178.092L1694.79 178.073L1694.78 178.053C1686.14 159.462 1674.11 144.183 1658.71 132.172L1658.7 132.166L1658.69 132.159C1643.65 120.232 1626.86 114.3 1608.24 114.3Z" fill="black" stroke="black" stroke-width="5"/>
</g>
<path d="M1373.46 23.7C1374.47 23.7 1375.59 24.0749 1376.36 25.1004C1377.02 25.9904 1377.16 27.0261 1377.16 27.7996C1377.16 28.5849 1376.96 29.6334 1376.12 30.4676C1375.29 31.3019 1374.24 31.4998 1373.46 31.4998C1365.84 31.4999 1359.87 33.2731 1355.34 36.6131L1355.33 36.6199L1355.32 36.6268C1350.93 39.796 1346.89 44.7762 1343.28 51.7508C1339.87 58.5703 1335.38 69.2644 1329.79 83.8914L1329.79 83.8983C1317.34 116.212 1297.49 145.626 1270.3 172.14L1323.13 250.806L1323.14 250.818L1323.15 250.831C1332.73 265.465 1340.4 276.306 1346.18 283.404C1351.92 290.189 1357.45 295.177 1362.75 298.462C1368.17 301.655 1374.64 303.3 1382.26 303.3C1383.17 303.3 1384.32 303.532 1385.22 304.432C1386.12 305.333 1386.36 306.481 1386.36 307.4C1386.36 308.41 1385.98 309.531 1384.96 310.3C1384.07 310.967 1383.03 311.1 1382.26 311.1C1373.41 311.1 1365.48 310.832 1358.46 310.293L1358.38 310.286L1358.3 310.275C1356.62 310.034 1353.96 309.9 1350.26 309.9H1313.86C1309.09 309.9 1305.45 310.034 1302.91 310.288L1302.86 310.292L1302.81 310.295C1294.21 310.832 1283.62 311.1 1271.06 311.1C1270.22 311.1 1269.18 310.99 1268.27 310.444C1267.23 309.818 1266.63 308.786 1266.56 307.633L1266.56 307.4L1266.56 307.195C1266.6 306.165 1266.99 305.051 1267.99 304.248C1268.93 303.497 1270.06 303.311 1270.98 303.302L1272.58 303.241C1280.39 302.888 1285.95 301.742 1289.49 299.988C1292.95 298.022 1294.56 295.254 1294.56 291.4C1294.56 287.801 1293.23 282.857 1290.28 276.443C1287.36 270.076 1282.94 262.464 1276.98 253.594L1276.98 253.587L1215.35 161.15C1203.17 171.866 1191.19 184.724 1179.42 199.742C1167.01 215.584 1157.27 231.927 1150.16 248.771L1150.15 248.787L1150.15 248.803C1146.52 257.095 1144.76 264.752 1144.76 271.8C1144.76 282.304 1148.46 290.345 1155.78 296.22C1163.52 301.944 1173.48 304.9 1185.86 304.9C1186.69 304.9 1187.73 305.011 1188.64 305.556C1189.76 306.224 1190.36 307.354 1190.36 308.6C1190.36 309.685 1189.99 310.895 1188.92 311.752C1187.95 312.524 1186.79 312.7 1185.86 312.7C1171.69 312.7 1158.19 312.433 1145.35 311.898L1145.29 311.894C1141.36 311.633 1136.49 311.5 1130.66 311.5C1127.52 311.5 1124.96 311.631 1122.97 311.881L1122.89 311.889L1122.82 311.894C1114.76 312.432 1105.77 312.7 1095.86 312.7C1094.85 312.7 1093.73 312.325 1092.96 311.3C1092.29 310.41 1092.16 309.374 1092.16 308.6C1092.16 307.815 1092.35 306.767 1093.19 305.932C1094.02 305.098 1095.07 304.9 1095.86 304.9L1096.57 304.895C1103.86 304.795 1109.46 303.15 1113.57 300.187C1118.26 296.737 1122.29 291.742 1125.62 285.082L1125.63 285.065L1125.64 285.05C1129.3 277.979 1133.93 267.152 1139.52 252.509L1139.52 252.499C1147.34 232.283 1157.72 213.676 1170.67 196.685L1170.67 196.675L1170.68 196.665C1183.33 180.405 1196.61 166.23 1210.54 154.152L1163.38 83.9949L1163.36 83.9695C1153.78 69.3255 1146.11 58.6287 1140.35 51.8152L1140.33 51.7967L1140.32 51.7791C1134.58 44.7306 1128.92 39.6252 1123.38 36.3524L1123.36 36.3397L1123.34 36.326C1118.21 33.1519 1111.89 31.4998 1104.26 31.4998C1103.48 31.4998 1102.45 31.3674 1101.56 30.7C1100.53 29.9309 1100.16 28.8096 1100.16 27.7996C1100.16 26.881 1100.39 25.7326 1101.29 24.8318C1102.19 23.9311 1103.34 23.7001 1104.26 23.7C1113.1 23.7 1121.04 23.9683 1128.05 24.5076L1128.13 24.5135L1128.21 24.5252C1129.89 24.7659 1132.55 24.9002 1136.26 24.9002H1172.26C1177.03 24.9002 1180.66 24.7669 1183.21 24.5125L1183.25 24.5076L1183.3 24.5047C1191.9 23.967 1202.49 23.7 1215.06 23.7C1215.99 23.7001 1217.15 23.8764 1218.12 24.6483C1219.19 25.5054 1219.56 26.7147 1219.56 27.7996C1219.56 29.0465 1218.96 30.1759 1217.84 30.8436C1216.96 31.373 1215.95 31.4912 1215.13 31.4979L1215.13 31.4988C1206.46 31.7616 1200.42 33.0774 1196.68 35.1785L1196.63 35.2088L1196.57 35.2361C1194.78 36.1308 1193.57 37.238 1192.79 38.5106C1192 39.784 1191.56 41.3791 1191.56 43.4002C1191.56 46.8581 1192.88 51.7308 1195.83 58.157C1198.75 64.5263 1203.17 72.2021 1209.13 81.202L1265.44 164.703C1275.76 154.395 1285.63 142.805 1295.04 129.925C1305.06 116.204 1313.1 102.107 1319.15 87.6356L1319.16 87.617L1319.17 87.5975C1322.79 79.3047 1324.56 71.6478 1324.56 64.6004C1324.56 54.1112 1320.74 46.2238 1313.17 40.6082L1313.13 40.5809L1313.09 40.5526C1305.64 34.5882 1295.83 31.4998 1283.46 31.4998C1282.62 31.4998 1281.58 31.3891 1280.67 30.8436C1279.56 30.1759 1278.96 29.0465 1278.96 27.7996C1278.96 26.7147 1279.32 25.5054 1280.39 24.6483C1281.36 23.8763 1282.52 23.7 1283.46 23.7C1295.85 23.7 1307.74 23.9048 1319.12 24.3143L1323.96 24.5018L1324.02 24.5057C1327.95 24.7674 1332.82 24.9002 1338.66 24.9002C1341.8 24.9002 1344.35 24.7686 1346.35 24.5193L1346.42 24.5106L1346.49 24.5057C1354.56 23.968 1363.55 23.7 1373.46 23.7Z" fill="black" stroke="black" stroke-width="5"/>
<path d="M978.428 21.3C1003.74 21.3 1024.59 25.7363 1040.8 34.7941L1041.57 35.2101C1057.62 43.9954 1066.13 55.9125 1066.13 71.0002C1066.13 85.5155 1061.06 96.963 1050.76 104.974C1040.83 112.702 1028.87 118.043 1014.96 121.044L1014.95 121.043C1001.49 124.005 983.921 126.548 962.283 128.686C945.78 130.549 933.048 132.276 924.062 133.862C915.22 135.422 907.932 138.002 902.128 141.535C896.671 144.857 894.128 149.284 894.128 155V155.3H1065.23C1066.42 155.3 1067.69 155.436 1068.75 155.964C1069.31 156.246 1069.88 156.674 1070.31 157.314C1070.74 157.968 1070.93 158.696 1070.93 159.4C1070.93 160.866 1070.27 162.197 1068.95 163.02C1067.83 163.72 1066.47 163.9 1065.23 163.9H885.528V155.4C885.528 146.813 889.296 140.044 896.622 135.332C903.636 130.562 912.117 127.386 921.989 125.737C931.949 123.854 945.617 121.982 962.961 120.114L962.973 120.113C983.731 117.984 1000.44 115.594 1013.12 112.952C1025.6 110.353 1036.16 105.695 1044.89 99.0275C1053.27 92.3677 1057.53 83.0066 1057.53 70.5998C1057.53 62.877 1054.31 56.062 1047.57 50.0685L1047.53 50.0363L1047.5 50.0021C1040.95 43.7069 1031.63 38.8026 1019.36 35.4094L1019.33 35.4006L1019.3 35.3918C1007.31 31.7433 993.697 29.8996 978.428 29.8996C959.667 29.8997 942.094 34.5851 925.669 43.9709C909.342 53.3007 896.053 67.5875 885.84 86.966L885.833 86.9777C875.677 105.988 870.528 129.69 870.528 158.2C870.528 183.495 875.005 206.896 883.934 228.433L884.354 229.422C893.245 250.136 906.671 266.893 924.651 279.744C943.083 292.464 966.025 298.9 993.628 298.9C1018.28 298.9 1039.96 291.459 1058.76 276.57L1059.66 275.856C1078.97 260.196 1093.94 238.073 1104.48 209.339L1104.58 209.06L1104.75 208.814C1105.38 207.863 1106.57 206.5 1108.43 206.5L1108.69 206.509C1109.31 206.55 1109.94 206.738 1110.51 207.12C1111.07 207.493 1111.47 207.978 1111.75 208.471L1111.86 208.682L1111.98 208.94C1112.52 210.237 1112.34 211.669 1112.05 212.807L1112.02 212.945L1111.97 213.078C1099.44 246.493 1081.48 271.744 1057.99 288.63C1034.49 305.523 1005.65 313.9 971.628 313.9C943.804 313.9 918.859 308.089 896.855 296.408C874.846 284.724 857.569 268.129 845.067 246.658C832.549 225.16 826.328 200.314 826.328 172.2C826.328 145.104 832.972 120.134 846.269 97.34C859.55 74.3045 877.723 55.9982 900.753 42.4494C924.085 28.6132 949.987 21.5706 978.404 21.3H978.428Z" fill="black" stroke="black" stroke-width="5"/>
<path d="M488.438 23.7C499.967 23.7 509.877 23.9347 518.159 24.407L519.793 24.5047L519.84 24.5076L519.887 24.5125C522.434 24.7672 525.939 24.9002 530.438 24.9002H607.237C643.991 24.9002 676.679 29.8627 705.262 39.8397H705.261C734.184 49.5757 757.138 65.1662 774.004 86.6561H774.003C790.95 107.982 799.338 134.96 799.338 167.4C799.338 196.898 792.024 222.472 777.302 244.011C762.846 265.282 741.621 281.56 713.788 292.911L713.789 292.912C686.21 304.268 653.069 309.9 614.438 309.9H530.458L518.188 310.296C512.304 310.829 507.184 311.1 502.838 311.1C493.442 311.1 486.244 307.924 481.929 301.142C477.941 294.876 475.938 288.011 475.938 280.6C475.938 252.022 492.575 229.667 524.737 213.453V89.4002C524.737 70.7563 523.666 57.5624 521.617 49.6248L521.607 49.5877L521.599 49.5506C519.812 41.6404 516.642 37.1899 512.567 35.2596C508.008 33.1 500.064 31.7654 488.381 31.4998V31.4979C487.556 31.4928 486.54 31.3769 485.651 30.8436C484.539 30.1759 483.938 29.0466 483.938 27.7996C483.938 26.7146 484.305 25.5054 485.376 24.6483C486.341 23.8763 487.504 23.7 488.438 23.7ZM524.737 223.162C497.609 238.101 484.537 257.401 484.537 281C484.537 286.363 485.988 291.5 488.943 296.45C491.859 300.67 496.331 302.9 502.838 302.9C508.158 302.9 512.009 301.881 514.65 300.12L514.688 300.095L514.728 300.071C517.27 298.507 519.754 294.354 521.603 286.432L521.611 286.393L521.622 286.356C523.667 278.686 524.737 266.557 524.737 249.8V223.162ZM748.537 123C748.537 143.994 738.501 160.116 718.864 171.179C699.559 182.054 675.742 188.928 647.498 191.887L647.497 191.886C614.605 195.512 586.962 200.646 564.537 207.263V241.8C564.537 255.893 564.804 266.473 565.328 273.578C566.121 280.708 567.045 287.024 568.094 292.532C568.845 296.288 569.403 299.219 569.765 301.3H621.237C664.247 301.3 696.992 289.569 719.859 266.442C742.742 243.033 754.338 210.136 754.338 167.4C754.338 150.798 752.392 135.77 748.531 122.292C748.534 122.528 748.537 122.764 748.537 123ZM567.396 33.4998C566.242 41.4121 565.419 48.7534 564.934 55.5272C564.67 62.6812 564.537 75.0284 564.537 92.6004V198.444C586.101 192.135 612.396 187.216 643.396 183.671L646.563 183.315C673.807 180.14 696.271 173.674 714.043 164.004C722.798 159.24 729.241 153.355 733.506 146.394C737.767 139.439 739.938 131.27 739.938 121.8C739.937 109.648 735.386 95.4802 725.973 79.2244C713.761 64.212 697.651 52.9078 677.557 45.3397L677.538 45.3328L677.52 45.325C657.605 37.4641 634.328 33.4998 607.638 33.4998H567.396Z" fill="black" stroke="black" stroke-width="5"/>
<path d="M153.234 23.3C161.302 23.3 171.75 23.7037 184.562 24.5041L195.274 24.8996H225.334V27.3996C225.334 48.919 232.443 68.0797 246.73 84.9709L248.104 86.549C262.01 102.344 281.074 118.331 305.36 134.493L307.807 136.111L307.825 136.122L307.843 136.134L316.639 142.131C341.164 158.392 359.053 170.541 370.287 178.566C381.564 186.62 390.887 194.581 398.223 202.452C402.798 207.031 406.576 211.741 409.534 216.584V96.2004C409.534 76.7878 405.598 61.3075 397.94 49.5656L397.923 49.5392L397.907 49.5129C390.608 37.6837 380.315 31.7497 366.788 31.4992V31.4982C366.02 31.4929 365.007 31.3545 364.135 30.7004C363.109 29.9313 362.734 28.8099 362.734 27.8C362.734 26.8814 362.966 25.7331 363.866 24.8322C364.767 23.9315 365.915 23.7004 366.834 23.7004C376.669 23.7004 386.504 23.9049 396.339 24.3146L400.554 24.5031L400.583 24.5041L400.612 24.506C404.267 24.7671 408.738 24.8996 414.034 24.8996C419.061 24.8996 423.399 24.7673 427.057 24.506L427.086 24.5041L427.115 24.5031C438.355 23.9679 449.594 23.7004 460.834 23.7004C461.768 23.7004 462.931 23.8757 463.896 24.6476C464.968 25.5049 465.334 26.7149 465.334 27.8C465.334 29.0468 464.734 30.1763 463.621 30.8439C462.712 31.3895 461.669 31.5002 460.834 31.5002C447.212 31.5003 436.795 36.7338 429.291 47.2199C421.924 57.8894 418.135 71.8836 418.135 89.3996V307.4C418.135 308.646 417.533 309.776 416.421 310.444C415.512 310.989 414.47 311.1 413.635 311.1C412.861 311.1 411.825 310.968 410.935 310.3C409.909 309.531 409.534 308.41 409.534 307.4C409.534 282.838 399.346 259.833 378.634 238.334L378.623 238.323C358.01 216.653 330.458 195.046 295.912 173.522V173.521C264.087 153.73 239.115 134.817 221.066 116.768L221.061 116.761L221.054 116.755C210.577 106.122 203.042 95.0908 198.534 83.6711V238.6C198.534 258.002 202.334 273.628 209.738 285.649C217.294 297.226 227.731 303.049 241.28 303.3L241.279 303.301C242.205 303.307 243.346 303.489 244.296 304.248C245.367 305.105 245.734 306.315 245.734 307.4C245.734 308.647 245.133 309.776 244.021 310.444C243.111 310.989 242.069 311.1 241.234 311.1C229.995 311.1 218.755 310.832 207.516 310.297L207.486 310.296L207.456 310.293C203.801 310.032 199.331 309.9 194.034 309.9C188.738 309.9 184.267 310.032 180.612 310.293L180.583 310.296L180.554 310.297C169.314 310.832 158.074 311.1 146.834 311.1C146.06 311.1 145.025 310.967 144.135 310.3C143.109 309.531 142.734 308.41 142.734 307.4C142.734 306.481 142.966 305.333 143.866 304.432C144.752 303.546 145.877 303.309 146.788 303.301V303.3C160.438 303.047 170.732 297.673 177.978 287.18L177.988 287.163L178 287.147C185.622 276.475 189.534 262.624 189.534 245.4V101.8C189.534 79.142 188.462 63.2508 186.394 53.9426L186.378 53.8644C184.554 44.2242 181.289 38.7413 177.182 36.3635C172.691 33.7637 164.833 32.1645 153.178 31.8996V31.8976C152.254 31.8905 151.118 31.7087 150.173 30.9523C149.101 30.0951 148.734 28.8851 148.734 27.8C148.734 26.748 148.999 25.4999 149.967 24.5324C150.934 23.5649 152.182 23.3 153.234 23.3Z" fill="black" stroke="black" stroke-width="5"/>
<path d="M119.4 23.7C120.334 23.7001 121.497 23.8764 122.462 24.6483C123.533 25.5054 123.9 26.7147 123.9 27.7996C123.9 29.0465 123.299 30.1759 122.187 30.8436C121.297 31.377 120.281 31.4929 119.456 31.4979L119.457 31.4998C107.774 31.7653 99.8296 33.1001 95.2705 35.2596C91.1705 37.2017 87.8789 41.6783 85.832 49.577C84.0352 57.5545 83.0996 70.7728 83.0996 89.4002V245.4C83.0996 264.019 84.0349 277.233 85.8301 285.212C87.8768 293.117 91.1686 297.598 95.2705 299.541C99.8296 301.7 107.774 303.035 119.457 303.301H119.456C120.38 303.308 121.516 303.491 122.462 304.248C123.533 305.105 123.9 306.315 123.9 307.4C123.9 308.647 123.299 309.777 122.187 310.444C121.277 310.99 120.235 311.1 119.4 311.1C107.102 311.1 96.6461 310.832 88.0439 310.295L87.998 310.292L87.9512 310.288C85.4043 310.033 81.8987 309.9 77.4004 309.9H49C44.5017 309.9 40.9961 310.033 38.4492 310.288L38.4023 310.292L38.3555 310.295C29.7534 310.832 19.2982 311.1 7 311.1C6.16501 311.1 5.12307 310.99 4.21387 310.444C3.17077 309.818 2.57701 308.786 2.50684 307.633L2.5 307.4L2.50391 307.195C2.54814 306.165 2.93395 305.051 3.93848 304.248C4.88404 303.491 6.01955 303.308 6.94336 303.301L9.08984 303.238C19.6062 302.865 26.8557 301.565 31.1299 299.541C35.2048 297.611 38.3749 293.16 40.1611 285.25L40.1699 285.212L40.1797 285.176C42.2281 277.238 43.2998 264.044 43.2998 245.4V89.4002C43.2998 70.7563 42.2281 57.5624 40.1797 49.6248L40.1699 49.5877L40.1611 49.5506C38.3749 41.6404 35.2048 37.1899 31.1299 35.2596C26.5708 33.1 18.6266 31.7654 6.94336 31.4998V31.4979C6.11816 31.4928 5.10269 31.3769 4.21387 30.8436C3.10114 30.1759 2.5 29.0466 2.5 27.7996C2.50008 26.7146 2.86713 25.5054 3.93848 24.6483C4.90348 23.8763 6.06623 23.7 7 23.7C18.5299 23.7 28.44 23.9347 36.7217 24.407L38.3555 24.5047L38.4023 24.5076L38.4492 24.5125C40.9961 24.7672 44.5018 24.9002 49 24.9002H77.4004C81.8987 24.9002 85.4043 24.7672 87.9512 24.5125L87.998 24.5076L88.0439 24.5047C96.6461 23.9671 107.102 23.7 119.4 23.7Z" fill="black" stroke="black" stroke-width="5"/>
</svg>
